<?xml version="1.0" encoding="UTF-8" standalone="no"?>
<svg width="14px" height="14px" viewBox="0 0 14 14" version="1.1" xmlns="http://www.w3.org/2000/svg" xmlns:xlink="http://www.w3.org/1999/xlink">
    <!-- Generator: Sketch 39.1 (31720) - http://www.bohemiancoding.com/sketch -->
    <title>search</title>
    <desc>Created with Sketch.</desc>
    <defs></defs>
    <g id="Page-1" stroke="none" stroke-width="1" fill="none" fill-rule="evenodd">
        <g id="首页" transform="translate(-1130.000000, -4201.000000)" fill="#3C3C3C">
            <g id="menu" transform="translate(0.000000, 4173.000000)">
                <path d="M1143.85552,40.4602633 L1141.13342,37.7382896 C1141.86249,36.7278726 1142.29214,35.4871058 1142.29214,34.1459699 C1142.29214,30.7517677 1139.54055,28 1136.14607,28 C1132.75177,28 1130,30.7517677 1130,34.1459699 C1130,37.5402703 1132.75177,40.2920379 1136.14607,40.2920379 C1137.48726,40.2920379 1138.72801,39.8623655 1139.73842,39.1333097 L1142.46045,41.8553394 C1142.65308,42.0478932 1142.96539,42.0478932 1143.15803,41.8553394 L1143.85552,41.1578434 C1144.04816,40.9652896 1144.04816,40.6529852 1143.85552,40.4602633 L1143.85552,40.4602633 Z M1131.75612,34.1459839 C1131.75612,31.7214456 1133.72163,29.7559394 1136.14617,29.7559394 C1138.5707,29.7559394 1140.53613,31.7214456 1140.53613,34.1459839 C1140.53613,36.5706063 1138.5707,38.5361126 1136.14617,38.5361126 C1133.72163,38.5361126 1131.75612,36.5705923 1131.75612,34.1459839 L1131.75612,34.1459839 Z" id="search"></path>
            </g>
        </g>
    </g>
</svg>